# xmcd
#
# Track frame offsets:
#	150
#	25337
#	42133
#	65686
#	83169
#	108753
#	124494
#	145157
#	167035
#	185046
#
# Disc length: 3098 seconds
#
# Revision: 0
# Processed by: cddbd v1.4PL0 Copyright (c) Steve Scherf et al.
# Submitted via: dBpowerAMP V4.0
#
DISCID=8a0c180a
DTITLE=Carl Gustave - too hard
DYEAR=1900
DGENRE=Blues
TTITLE0=Too Hard
TTITLE1=Wrong In The Past
TTITLE2=Seaside
TTITLE3=Open Up Your Heart
TTITLE4=People, People
TTITLE5=Try It
TTITLE6=Maybe Tomorrow
TTITLE7=Cool With Me
TTITLE8=Walkin Alone
TTITLE9=Five Long Years
EXTD=
EXTT0=
EXTT1=
EXTT2=
EXTT3=
EXTT4=
EXTT5=
EXTT6=
EXTT7=
EXTT8=
EXTT9=
PLAYORDER=
